<svg xmlns="http://www.w3.org/2000/svg" viewBox="-153.85 -2054.64 6461.70 2663.28">
  <g transform="scale(1, -1)">
    <path d="M300 327Q345 454 405.0 548.0Q465 642 531.0 703.5Q597 765 659.0 795.5Q721 826 767 826Q826 826 839.0 784.0Q852 742 813 631L663 200Q638 129 639.0 80.0Q640 31 666.5 6.5Q693 -18 741 -18Q805 -18 861.0 15.5Q917 49 950 106Q958 122 959.0 133.5Q960 145 951 150Q942 154 932.5 149.5Q923 145 909 132Q879 101 858.0 89.0Q837 77 818 77Q790 77 782.0 110.5Q774 144 804 227L950 641Q981 731 987.0 794.0Q993 857 962.5 890.5Q932 924 853 924Q780 924 682.5 880.0Q585 836 486.5 734.0Q388 632 311 457L329 450L479 996Q512 1118 562.5 1197.5Q613 1277 677.0 1316.0Q741 1355 814 1355Q845 1355 873.0 1344.0Q901 1333 927.0 1318.5Q953 1304 979.0 1293.0Q1005 1282 1032 1282Q1075 1282 1098.0 1301.5Q1121 1321 1121 1354Q1121 1388 1083.5 1411.5Q1046 1435 963 1435Q805 1435 681.5 1383.5Q558 1332 472.0 1227.5Q386 1123 340 962L100 106Q89 68 89.0 40.0Q89 12 103.0 -3.0Q117 -18 144 -18Q197 -18 230.5 1.5Q264 21 264 52Q264 75 259.0 90.0Q254 105 254 129Q254 147 259.0 175.0Q264 203 274.5 242.0Q285 281 300 327Z" fill="#1F4045" transform="translate(0, 0)"/>
    <path d="M161 410Q161 410 199.5 426.0Q238 442 300.5 467.0Q363 492 435.0 521.5Q507 551 576.0 580.0Q645 609 697 630L679 602Q686 621 689.0 644.0Q692 667 692 701Q692 773 659.0 821.0Q626 869 573 869Q519 869 460.5 829.0Q402 789 351.0 719.5Q300 650 265.5 558.5Q231 467 224 363Q215 214 274.0 139.5Q333 65 435 65Q501 65 563.5 91.0Q626 117 675.0 167.0Q724 217 748 291Q757 308 765.0 314.0Q773 320 782 320Q794 319 800.5 309.5Q807 300 803 278Q791 204 736.0 135.5Q681 67 589.0 24.5Q497 -18 373 -18Q273 -18 206.0 22.0Q139 62 107.0 137.5Q75 213 81 319Q88 439 134.0 547.5Q180 656 254.0 741.0Q328 826 419.5 875.5Q511 925 608 925Q676 925 723.5 895.5Q771 866 797.0 817.5Q823 769 825 710Q825 698 832.0 690.5Q839 683 851 685Q865 688 872.0 683.0Q879 678 879 667Q879 655 868.0 644.5Q857 634 824 621Q786 606 723.5 581.5Q661 557 587.5 527.5Q514 498 440.0 468.0Q366 438 304.5 414.0Q243 390 206.0 375.0Q169 360 169 360Z" fill="#1F4045" transform="translate(1104, 0)"/>
    <path d="M777 227Q756 141 762.5 109.0Q769 77 794 77Q814 77 834.0 89.0Q854 101 885 131Q899 144 908.0 148.5Q917 153 926 149Q935 145 934.0 133.5Q933 122 925 105Q893 49 836.0 15.5Q779 -18 721 -18Q674 -18 649.0 5.5Q624 29 624 77Q624 100 628.5 128.0Q633 156 645.0 202.0Q657 248 679.5 321.0Q702 394 737 506L753 487Q688 325 605.5 212.0Q523 99 431.0 40.5Q339 -18 246 -18Q152 -18 99.5 47.0Q47 112 60 258Q68 360 110.5 457.5Q153 555 221.0 639.5Q289 724 376.0 788.0Q463 852 562.0 888.0Q661 924 764 924Q830 924 874.0 914.0Q918 904 940.5 886.5Q963 869 962 847Q961 831 951.0 819.5Q941 808 930.0 796.5Q919 785 915 768ZM202 268Q192 156 222.5 109.0Q253 62 310 62Q361 62 420.0 102.0Q479 142 538.0 213.0Q597 284 648.0 375.0Q699 466 736.0 570.0Q773 674 789 781Q796 824 778.5 843.0Q761 862 725 862Q653 862 581.5 829.5Q510 797 445.5 739.5Q381 682 328.5 606.5Q276 531 243.0 444.5Q210 358 202 268Z" fill="#1F4045" transform="translate(2023, 0)"/>
    <path d="M163 756Q154 760 155.0 771.5Q156 783 164 800Q186 838 218.5 865.5Q251 893 290.5 908.5Q330 924 372 924Q415 924 440.0 902.0Q465 880 465 835Q465 792 446.5 733.5Q428 675 403.0 611.5Q378 548 358.0 491.5Q338 435 335 396H320Q351 506 399.0 602.0Q447 698 505.5 770.5Q564 843 628.5 883.5Q693 924 757 924Q825 924 858.5 888.0Q892 852 891 792Q890 752 877.0 722.5Q864 693 842.5 677.5Q821 662 796 662Q769 662 755.5 675.5Q742 689 742 709Q742 727 747.5 745.0Q753 763 753 784Q753 810 741.0 826.0Q729 842 701 842Q650 842 583.0 780.0Q516 718 448.5 600.5Q381 483 329 315Q306 246 295.0 206.0Q284 166 284 134Q284 113 291.5 101.0Q299 89 307.0 78.0Q315 67 315 49Q315 31 300.0 15.5Q285 0 257.0 -9.5Q229 -19 190 -19Q155 -19 138.0 -1.5Q121 16 123.0 53.5Q125 91 144 151L313 679Q340 762 332.5 795.0Q325 828 295 828Q278 828 256.0 816.5Q234 805 204 774Q190 761 180.5 756.5Q171 752 163 756Z" fill="#1F4045" transform="translate(3064, 0)"/>
    <path d="M289 826 198 841Q185 845 177.5 852.5Q170 860 170 870Q170 884 181.0 891.5Q192 899 211 899H314Q332 899 345.0 905.5Q358 912 368 925L458 1068Q468 1082 478.5 1086.5Q489 1091 500 1091Q514 1091 521.0 1084.5Q528 1078 528 1064Q528 1055 525.0 1040.5Q522 1026 516 1008L283 264Q248 152 265.0 116.5Q282 81 339 81Q390 81 435.5 103.0Q481 125 528 179Q538 189 544.5 193.0Q551 197 558 197Q568 197 572.5 191.0Q577 185 576 175Q574 149 548.5 115.5Q523 82 480.0 52.0Q437 22 381.0 2.0Q325 -18 261 -18Q191 -18 156.5 11.0Q122 40 119.5 95.0Q117 150 141 227L304 743Q318 788 315.0 805.0Q312 822 289 826ZM394 835 415 898H698Q728 898 728 874Q728 856 710.5 845.5Q693 835 663 835Z" fill="#1F4045" transform="translate(3938, 0)"/>
    <path d="M300 327Q345 454 405.0 548.0Q465 642 531.0 703.5Q597 765 659.0 795.5Q721 826 767 826Q826 826 839.0 784.0Q852 742 813 631L663 200Q638 129 639.0 80.0Q640 31 666.5 6.5Q693 -18 741 -18Q805 -18 861.0 15.5Q917 49 950 106Q958 122 959.0 133.5Q960 145 951 150Q942 154 932.5 149.5Q923 145 909 132Q879 101 858.0 89.0Q837 77 818 77Q790 77 782.0 110.5Q774 144 804 227L950 641Q981 731 987.0 794.0Q993 857 962.5 890.5Q932 924 853 924Q780 924 682.5 880.0Q585 836 486.5 734.0Q388 632 311 457L329 450L479 996Q512 1118 562.5 1197.5Q613 1277 677.0 1316.0Q741 1355 814 1355Q845 1355 873.0 1344.0Q901 1333 927.0 1318.5Q953 1304 979.0 1293.0Q1005 1282 1032 1282Q1075 1282 1098.0 1301.5Q1121 1321 1121 1354Q1121 1388 1083.5 1411.5Q1046 1435 963 1435Q805 1435 681.5 1383.5Q558 1332 472.0 1227.5Q386 1123 340 962L100 106Q89 68 89.0 40.0Q89 12 103.0 -3.0Q117 -18 144 -18Q197 -18 230.5 1.5Q264 21 264 52Q264 75 259.0 90.0Q254 105 254 129Q254 147 259.0 175.0Q264 203 274.5 242.0Q285 281 300 327Z" fill="#1F4045" transform="translate(4644, 0)"/>
    <path d="M128 -14Q82 -14 58.0 14.0Q34 42 41 83Q46 114 66.0 139.0Q86 164 116.5 179.0Q147 194 183 194Q231 194 253.5 165.5Q276 137 268 95Q263 65 243.5 40.5Q224 16 194.0 1.0Q164 -14 128 -14Z" fill="#E1BE74" transform="translate(5748, 0)"/>
  </g>
</svg>